<svg width="28" height="28" viewBox="0 0 28 28" fill="none" xmlns="http://www.w3.org/2000/svg">
<path fill-rule="evenodd" clip-rule="evenodd" d="M7.43353 2.86209C7.43353 1.31976 8.6814 0.0690918 10.2209 0.0690918C11.762 0.0706375 13.0101 1.32103 13.0088 2.86209V5.65509H10.2209C9.48092 5.65435 8.77152 5.35967 8.24878 4.83588C7.72604 4.31209 7.43279 3.6021 7.43353 2.86209ZM2.7874 7.51709H10.2209C11.7605 7.51709 13.0088 8.76776 13.0088 10.3106C13.0088 11.8529 11.7605 13.1036 10.2214 13.1036H2.7874C1.24787 13.1036 0 11.8529 0 10.3106C0 8.76776 1.24787 7.51709 2.7874 7.51709Z" fill="#36C5F0"/>
<path fill-rule="evenodd" clip-rule="evenodd" d="M20.4423 2.86209V10.3106V10.311C20.4436 11.8521 19.1955 13.1025 17.6545 13.104C16.1149 13.104 14.8671 11.8534 14.8671 10.3101V2.86209C14.8671 1.31976 16.1149 0.0690918 17.6545 0.0690918C19.1955 0.0706375 20.4436 1.32103 20.4423 2.86209ZM25.088 7.51709C26.6275 7.51709 27.8759 8.76776 27.8759 10.3106C27.8772 11.8516 26.6291 13.102 25.088 13.1036H22.3006V10.3106C22.3006 8.76776 23.5485 7.51709 25.088 7.51709Z" fill="#2EB67D"/>
<path fill-rule="evenodd" clip-rule="evenodd" d="M25.0885 20.552H17.6545V20.5516C16.9145 20.5508 16.2051 20.2562 15.6823 19.7324C15.1596 19.2086 14.8663 18.4986 14.8671 17.7586C14.8671 16.2162 16.1149 14.9656 17.6545 14.9656H25.088C26.6291 14.9671 27.8772 16.2175 27.8759 17.7586C27.8759 19.3014 26.6275 20.552 25.0885 20.552ZM20.4423 25.207C20.4436 26.7481 19.1955 27.9985 17.6545 28C16.1149 28 14.8671 26.7494 14.8671 25.207V22.414H17.6545C19.1955 22.4156 20.4436 23.666 20.4423 25.207Z" fill="#ECB22E"/>
<path fill-rule="evenodd" clip-rule="evenodd" d="M0.815253 19.7324C0.292514 19.2086 -0.000740168 18.4986 1.40302e-06 17.7586C1.40302e-06 16.2162 1.24787 14.9656 2.7874 14.9656H5.57527V17.7586C5.57656 19.2996 4.32846 20.55 2.7874 20.5516C2.0474 20.5508 1.33799 20.2562 0.815253 19.7324ZM7.43354 25.2066V17.7586C7.43354 16.2162 8.6814 14.9656 10.2209 14.9656C10.961 14.9662 11.6705 15.2608 12.1934 15.7846C12.7162 16.3084 13.0095 17.0185 13.0088 17.7586V25.207C13.0101 26.7481 11.762 27.9985 10.2209 28C8.6814 28 7.43354 26.7494 7.43354 25.2066Z" fill="#E01E5A"/>
</svg>
